<?xml version="1.0" encoding="utf-8"?>
<!-- Generator: Adobe Illustrator 27.6.1, SVG Export Plug-In . SVG Version: 6.00 Build 0)  -->
<svg version="1.1" id="Layer_1" xmlns="http://www.w3.org/2000/svg" xmlns:xlink="http://www.w3.org/1999/xlink" x="0px" y="0px"
	 viewBox="0 0 340.2 340.2" style="enable-background:new 0 0 340.2 340.2;" xml:space="preserve">
<style type="text/css">
	.st0{fill:#565554;}
	.st1{fill:#929191;}
	.st2{fill:#F5893F;}
	.st3{fill:#EC7626;}
	.st4{fill:#FFFFFF;}
	.st5{fill:none;stroke:#6D6E6E;stroke-width:3;stroke-linecap:round;stroke-linejoin:round;stroke-miterlimit:10;}
	.st6{fill:none;stroke:#D36828;stroke-width:3;stroke-linecap:round;stroke-linejoin:round;stroke-miterlimit:10;}
	.st7{opacity:0.5;clip-path:url(#XMLID_00000146469289402905149770000013599925317999076227_);fill:#D36828;}
</style>
<g>
	<g>
		<path class="st0" d="M248.4,7.2H91.7C45,7.2,7.2,45,7.2,91.7v156.7C7.2,295.1,45,333,91.7,333h156.7c46.7,0,84.5-37.8,84.5-84.5
			V91.7C333,45,295.1,7.2,248.4,7.2z"/>
		<g>
			<g id="XMLID_00000096021847684084842820000015744814835207500201_">
				<g>
					<path class="st1" d="M266.8,166.2c8.4,11,12.3,23,10.6,35c-5.1,35-56.8,56.4-115.5,47.9c-58.7-8.5-102.2-43.8-97.1-78.8
						c1.8-12.6,9.7-23.4,21.7-31.7l-1.6,25.1c-4.3,29.7,32.6,59.6,82.4,66.8c49.8,7.2,93.7-11,98-40.6L266.8,166.2z"/>
					<path class="st2" d="M184.9,90.1c49.8,7.2,86.8,37.1,82.4,66.8c-4.3,29.7-48.2,47.9-98,40.6c-46.9-6.8-82.3-33.7-82.8-61.5
						l0.3-5.3C91.2,101,135.1,82.8,184.9,90.1z M219.9,130.7l8.9-4.5l-35-18.4l-8.9,4.4L219.9,130.7z M202.8,136.7l8.2-4.9
						L184,117.6l-8.2,4.9L202.8,136.7z M185,141.5l7.6-4.7l-16.4-8.6l-7.6,4.7L185,141.5z M164.4,170.3l6.6-29.9l-46.1,10.2
						L164.4,170.3z"/>
					<path class="st3" d="M266.8,166.2l-1.5,23.8c-4.3,29.7-48.2,47.9-98,40.6c-49.8-7.2-86.7-37.2-82.4-66.8l1.6-25.1l0.2-2.7
						c0.5,27.9,35.9,54.7,82.8,61.5c49.8,7.2,93.7-10.9,98-40.6L266.8,166.2z"/>
					<polygon class="st4" points="228.8,126.3 219.9,130.7 185,112.4 193.8,107.9 					"/>
					<polygon class="st4" points="211,131.8 202.8,136.7 175.9,122.5 184,117.6 					"/>
					<polygon class="st4" points="192.6,136.8 185,141.5 168.6,132.9 176.2,128.2 					"/>
					<polygon class="st4" points="170.9,140.4 164.4,170.3 124.8,150.7 					"/>
				</g>
				<g>
					<path class="st5" d="M266.7,166.2C266.8,166.2,266.8,166.2,266.7,166.2c8.4,11,12.4,23.1,10.6,35.1
						c-5.1,35-56.8,56.4-115.5,47.9c-58.7-8.5-102.2-43.8-97.1-78.8c1.8-12.6,9.7-23.4,21.7-31.7c0.1-0.1,0.2-0.1,0.3-0.2"/>
					<path class="st6" d="M267.4,156.9c-4.3,29.7-48.2,47.9-98,40.6c-46.9-6.8-82.3-33.7-82.8-61.5c0-1.8,0.1-3.5,0.3-5.3
						c4.3-29.7,48.2-47.9,98-40.6C234.8,97.3,271.7,127.2,267.4,156.9z"/>
					<path class="st6" d="M265.3,190c-4.3,29.7-48.2,47.9-98,40.6c-49.8-7.2-86.7-37.2-82.4-66.8"/>
					<polyline class="st6" points="86.9,130.7 86.6,136 86.4,138.7 84.8,163.8 					"/>
					<polyline class="st6" points="265.3,190 266.8,166.2 267.4,156.9 					"/>
					<polygon class="st6" points="124.8,150.7 164.4,170.3 170.9,140.4 					"/>
					<polygon class="st6" points="192.6,136.8 185,141.5 168.6,132.9 176.2,128.2 					"/>
					<polygon class="st6" points="211,131.8 202.8,136.7 175.9,122.5 184,117.6 					"/>
					<polygon class="st6" points="228.8,126.3 219.9,130.7 185,112.4 193.8,107.9 					"/>
				</g>
			</g>
		</g>
	</g>
	<g>
		<path id="XMLID_00000163042398139256797890000017325878959195594156_" class="st5" d="M266.7,166c8.4,11,12.4,23,10.6,35.1
			c-5.1,35-56.8,56.4-115.5,47.9s-102.2-43.8-97.2-78.7c1.8-12.7,9.8-23.6,22-31.9"/>
		<path class="st6" d="M86.9,130.5c4.3-29.7,48.2-47.9,98-40.6s86.7,37.1,82.4,66.8"/>
		<g>
			<defs>
				<path id="XMLID_00000013871766665459460470000012989426008238676628_" d="M84.8,163.7c-4.3,29.7,32.6,59.6,82.4,66.8
					c49.8,7.2,93.7-11,98-40.6l2.1-33.1c-4.3,29.7-48.2,47.9-98,40.6s-86.7-37.1-82.4-66.8L84.8,163.7z"/>
			</defs>
			<clipPath id="XMLID_00000122711306472685139050000014108182019659540144_">
				<use xlink:href="#XMLID_00000013871766665459460470000012989426008238676628_"  style="overflow:visible;"/>
			</clipPath>
			<path style="opacity:0.5;clip-path:url(#XMLID_00000122711306472685139050000014108182019659540144_);fill:#D36828;" d="
				M75,103.3c2.4,15,10,49.6,38.5,80.4c44.9,48.6,106,49.3,116.7,49.2c-54.2,3.3-108.3,6.6-162.5,9.9C70,196.3,72.5,149.8,75,103.3z
				"/>
			
				<use xlink:href="#XMLID_00000013871766665459460470000012989426008238676628_"  style="overflow:visible;fill:none;stroke:#D36828;stroke-width:3;stroke-linecap:round;stroke-linejoin:round;stroke-miterlimit:10;"/>
		</g>
		<polygon class="st6" points="124.8,150.5 164.4,170.2 170.9,140.3 		"/>
		<polygon class="st6" points="192.6,136.7 185,141.3 168.6,132.7 176.2,128 		"/>
		<polygon class="st6" points="211,131.6 202.8,136.5 175.9,122.4 184,117.4 		"/>
		<polygon class="st6" points="228.8,126.1 219.9,130.6 185,112.2 193.8,107.8 		"/>
	</g>
</g>
</svg>
