<?xml version="1.0" encoding="utf-8"?>
<!-- Generator: Adobe Illustrator 27.6.1, SVG Export Plug-In . SVG Version: 6.00 Build 0)  -->
<svg version="1.1" xmlns="http://www.w3.org/2000/svg" xmlns:xlink="http://www.w3.org/1999/xlink" x="0px" y="0px"
	 viewBox="0 0 595.3 595.3" style="enable-background:new 0 0 595.3 595.3;" xml:space="preserve">
<style type="text/css">
	.st0{fill:#FFC4C9;}
	.st1{fill:#54BDC7;}
	.st2{fill:#2791A1;}
	.st3{fill:#025866;}
	.st4{fill:#097384;}
	.st5{fill:none;stroke:#025866;stroke-width:4;stroke-linecap:round;stroke-linejoin:round;stroke-miterlimit:10;}
	.st6{fill:none;stroke:#025866;stroke-width:5;stroke-linecap:round;stroke-linejoin:round;stroke-miterlimit:10;}
	.st7{fill:none;stroke:#FFD8D4;stroke-width:10;stroke-linecap:round;stroke-linejoin:round;stroke-miterlimit:10;}
	.st8{fill:none;stroke:#025866;stroke-width:10;stroke-linecap:round;stroke-linejoin:round;stroke-miterlimit:10;}
	.st9{fill:#DB0636;}
	.st10{fill:none;stroke:#DB0636;stroke-width:3;stroke-linecap:round;stroke-linejoin:round;}
	.st11{fill:#AB052A;}
	.st12{fill:none;stroke:#AB052A;stroke-width:3;stroke-linecap:round;stroke-linejoin:round;}
	.st13{fill:#7D041F;}
	.st14{fill:none;stroke:#7D041F;stroke-width:3;stroke-linecap:round;stroke-linejoin:round;}
	.st15{fill:#940525;}
	.st16{fill:none;stroke:#7D041F;stroke-width:3;stroke-linecap:round;stroke-linejoin:round;stroke-miterlimit:10;}
	.st17{fill:#FFFFFF;}
	.st18{fill:none;stroke:#FFC4C9;stroke-width:4;stroke-linecap:round;stroke-linejoin:round;stroke-miterlimit:10;}
</style>
<g id="Layer_3">
	<g>
		<g id="XMLID_00000142894123752593884980000017348487981908455862_">
			<g>
				<path class="st0" d="M580,297.6c0,1.4,0,2.7,0,4.1l-35.4-28.8l0,0c-23.3-20.6-124.4-6.8-229.9,52
					c-105.1,58.6-174,134.7-165.7,167.4l0.3,45.6C68.8,488.1,15.3,399.1,15.3,297.6c0-155.9,126.4-282.4,282.4-282.4
					C453.6,15.3,580,141.7,580,297.6z"/>
				<path class="st1" d="M547.1,275.6c18.4,25.7-27.7,93.1-107.5,150.3c-15.7,11.2-32.6,22.1-50.7,32.1
					c-109.8,61.2-223.5,66.5-238.4,38.4c-0.7-1.3-1.2-2.7-1.6-4.1c-8.2-32.7,60.6-108.8,165.7-167.4c105.5-58.8,206.6-72.6,229.9-52
					l0,0C545.6,273.7,546.4,274.6,547.1,275.6z"/>
				<path class="st2" d="M544.6,272.9l35.4,28.8c-0.5,32.8-6.5,64.3-17.3,93.4C534.4,438.1,484.7,485.5,421,521
					c-32.2,18-65.2,30.6-96.6,38.8c80.2-24.7,115.2-133.9,115.2-133.9c79.8-57.2,125.9-124.6,107.5-150.3
					C546.4,274.6,545.6,273.7,544.6,272.9z"/>
				<path class="st3" d="M421,521c63.6-35.5,113.4-82.9,141.7-125.8C523.2,502.6,420.2,579.4,299.1,580c11-1.5,21.7-18.8,22.1-19.3
					c0,0,0,0,0,0c1-0.3,2.1-0.5,3.1-0.8c0,0,0,0,0.1,0C355.8,551.6,388.8,539,421,521z"/>
				<path class="st1" d="M439.6,425.9c0,0-34.9,109.2-115.2,133.9c0,0,0,0-0.1,0c-1,0.3-2.1,0.5-3.1,0.8c0,0,0,0,0,0
					c-33.6,8.5-65.3,11.8-92.1,11c0,0,0,0,0,0c-28.6-7.1-55.5-18.6-79.9-33.7l-0.3-45.6c0.4,1.5,0.9,2.9,1.6,4.1
					c14.9,28.1,128.6,22.8,238.4-38.4C406.9,448,423.9,437.1,439.6,425.9z"/>
				<path class="st4" d="M321.2,560.7c-0.3,0.5-11,17.8-22.1,19.3c-0.5,0-1,0-1.5,0c-23.6,0-46.6-2.9-68.5-8.4
					C255.9,572.4,287.6,569.1,321.2,560.7z"/>
			</g>
			<g>
				<path class="st5" d="M544.6,272.9c1,0.8,1.8,1.8,2.5,2.7c18.4,25.7-27.7,93.1-107.5,150.3c-15.7,11.2-32.6,22.1-50.7,32.1
					c-109.8,61.2-223.5,66.5-238.4,38.4c-0.7-1.3-1.2-2.7-1.6-4.1c-8.2-32.7,60.6-108.8,165.7-167.4
					C420.2,266,521.3,252.2,544.6,272.9"/>
				<polyline class="st5" points="580,301.7 544.6,272.9 544.6,272.9 				"/>
				<path class="st6" d="M324.4,559.8c31.4-8.2,64.4-20.9,96.6-38.8c63.6-35.5,113.4-82.9,141.7-125.8"/>
				<path class="st6" d="M321.2,560.6c1-0.3,2.1-0.5,3.1-0.8"/>
				<path class="st6" d="M229.1,571.6c26.8,0.8,58.5-2.5,92.1-11"/>
				<line class="st5" x1="148.9" y1="492.3" x2="149.2" y2="537.9"/>
				<path class="st6" d="M324.4,559.8C324.4,559.8,324.4,559.8,324.4,559.8"/>
				<path class="st7" d="M229.1,571.6c-28.6-7.1-55.5-18.6-79.9-33.7C68.8,488.1,15.3,399.1,15.3,297.6
					c0-155.9,126.4-282.4,282.4-282.4c156,0,282.4,126.4,282.4,282.4c0,1.4,0,2.7,0,4.1c-0.5,32.8-6.5,64.3-17.3,93.4
					C523.2,502.6,420.2,579.4,299.1,580c-0.5,0-1,0-1.5,0C274,580,251,577.1,229.1,571.6"/>
				<path class="st6" d="M229.1,571.6C229.1,571.6,229.1,571.6,229.1,571.6"/>
			</g>
		</g>
		<circle class="st8" cx="297.6" cy="297.6" r="282.4"/>
	</g>
	<g id="XMLID_00000176755065786218781350000017389223380625742510_">
		<g>
			<path class="st9" d="M311.4,294.6c-1.1-0.3-13.6-3.9-24.1,4.6c-9,7.3-9.6,17.9-9.7,19.5c-7.3-9.4-5.8-22.7,2.5-29.5
				C289.1,281.7,304.1,283.6,311.4,294.6z"/>
		</g>
		<g>
			<path class="st10" d="M277.6,318.7c0.1-1.6,0.6-12.2,9.7-19.5c10.5-8.4,23-4.9,24.1-4.6c-7.3-11-22.3-13-31.3-5.5
				C271.8,296,270.2,309.3,277.6,318.7z"/>
		</g>
	</g>
	<g id="XMLID_00000088133618433617241640000013136824745102220953_">
		<g>
			<path class="st11" d="M302,261.8c-11.5-13.6-28.2-17.7-40.5-9.7c-14.7,9.6-21,23.2-10.6,42.4c-18.7-26.7-17.8-51.6,0.4-62
				C271.8,220.9,291.7,240.6,302,261.8z"/>
		</g>
		<g>
			<path class="st12" d="M250.9,294.4c-10.4-19.2-4.1-32.8,10.6-42.4c12.3-8,29-3.9,40.5,9.7c-10.3-21.2-30.2-40.9-50.7-29.3
				C233.1,242.8,232.2,267.7,250.9,294.4z"/>
		</g>
	</g>
	<g id="XMLID_00000013159345934851875560000008259831173361744556_">
		<g>
			<path class="st13" d="M177.7,106.2C230.9,76,283.9,154.5,301,209.5c-28.2-46-59.6-49-84.4-36.7c-22.3,11.1-39.6,49.9-5.3,100.6
				C169.3,235.5,130.3,133,177.7,106.2z"/>
		</g>
		<g>
			<path class="st14" d="M211.3,273.4c-34.3-50.7-17-89.5,5.3-100.6c24.8-12.3,56.2-9.3,84.4,36.7c-17-55-70-133.5-123.2-103.3
				C130.3,133,169.3,235.5,211.3,273.4z"/>
		</g>
	</g>
</g>
<g id="Layer_4">
	<g>
		<g id="XMLID_00000127026338713583893390000011415083023234259868_">
			<g>
				<path class="st15" d="M274.3,389.1l2.9,8.5c0.9,1.4,0.8,4-0.6,5.1l-15.5,10.4c-1.8,1.2-4,1.3-5.9,0.4c-0.8-0.4-1.3-1-1.6-1.8h0
					l-3.6-9.5c0.3,0.5,0.8,1,1.4,1.3c1.9,0.9,4.1,0.8,5.9-0.4l15.7-10.6c0.9-0.6,1.4-1.6,1.4-2.6
					C274.4,389.7,274.4,389.4,274.3,389.1z"/>
				<path class="st9" d="M274.3,389.1c0.1,0.3,0.1,0.6,0.1,0.8c0,1-0.5,2-1.4,2.6l-15.7,10.6c-1.8,1.2-4,1.3-5.9,0.4
					c-0.6-0.3-1.1-0.8-1.4-1.3c-0.9-1.5-0.5-3.5,1-4.5l15.3-10.2c1.9-1.3,4.3-1.4,6.4-0.4c0.7,0.4,1.2,1,1.5,1.7L274.3,389.1z"/>
			</g>
			<g>
				<line class="st16" x1="250" y1="402.2" x2="253.6" y2="411.7"/>
				<line class="st14" x1="274.3" y1="389.1" x2="277.2" y2="397.6"/>
				<path class="st14" d="M277.2,397.6c0.9,1.4,0.8,4-0.6,5.1l-15.5,10.4c-1.8,1.2-4,1.3-5.9,0.4c-0.8-0.4-1.3-1-1.6-1.8"/>
				<path class="st14" d="M274.3,389.1c0.1,0.3,0.1,0.6,0.1,0.8c0,1-0.5,2-1.4,2.6l-15.7,10.6c-1.8,1.2-4,1.3-5.9,0.4
					c-0.6-0.3-1.1-0.8-1.4-1.3c-0.9-1.5-0.5-3.5,1-4.5l15.3-10.2c1.9-1.3,4.3-1.4,6.4-0.4c0.7,0.4,1.2,1,1.5,1.7L274.3,389.1z"/>
			</g>
		</g>
	</g>
	<g>
		<g id="XMLID_00000138533823582710631480000014361292209339995071_">
			<g>
				<path class="st15" d="M297,392.5c1-0.7,1.4-1.8,1.4-2.8c0-0.5-0.1-0.9-0.3-1.4l4.1,10.9c0.1,1.2-0.3,2.4-1.4,3.2l-43.5,30.8
					c-1.9,1.4-4.5,1.6-6.6,0.5c-1.2-0.6-1.6-1.6-2-2.8l-3.5-8.8c0.3,0.7,0.9,1.3,1.7,1.6c2.1,1,4.6,0.8,6.6-0.5L297,392.5z"/>
				<path class="st9" d="M298.1,388.4c0.2,0.4,0.3,0.9,0.3,1.4c0,1-0.5,2.1-1.4,2.8l-43.5,30.9c-1.9,1.4-4.5,1.6-6.6,0.5
					c-0.8-0.4-1.3-1-1.7-1.6l-0.3-0.8c-0.4-1.4,0.1-3,1.4-4l42.8-30.3c2.2-1.5,5-1.8,7.4-0.6C297.2,387,297.8,387.6,298.1,388.4
					L298.1,388.4z"/>
				<path class="st9" d="M244.9,421.5l0.3,0.8C245,422,244.9,421.8,244.9,421.5z"/>
			</g>
			<g>
				<line class="st16" x1="298.1" y1="388.4" x2="302.2" y2="399.3"/>
				<polyline class="st16" points="248.6,431.1 245.1,422.3 244.9,421.5 				"/>
				<path class="st14" d="M302.2,399.3c0.1,1.2-0.3,2.4-1.4,3.2l-43.5,30.8c-1.9,1.4-4.5,1.6-6.6,0.5c-1.2-0.6-1.6-1.6-2-2.8"/>
				<line class="st16" x1="298.1" y1="388.3" x2="298.1" y2="388.4"/>
				<path class="st14" d="M298.1,388.4c0.2,0.4,0.3,0.9,0.3,1.4c0,1-0.5,2.1-1.4,2.8l-43.5,30.9c-1.9,1.4-4.5,1.6-6.6,0.5
					c-0.8-0.4-1.3-1-1.7-1.6c-0.1-0.2-0.2-0.5-0.3-0.8c-0.4-1.4,0.1-3,1.4-4l42.8-30.3c2.2-1.5,5-1.8,7.4-0.6
					C297.2,387,297.8,387.6,298.1,388.4"/>
			</g>
		</g>
	</g>
	<g>
		<g id="XMLID_00000088846104167079580550000005368586420030919348_">
			<g>
				<path class="st15" d="M282,414.8c1.8,0.9,4,0.8,5.6-0.4l8.1-5.5c1.1-0.7,1.6-1.9,1.6-3c0-0.3,0-0.5-0.1-0.8l3.4,8.8h0
					c1,1.6,0.6,3.8-1.1,4.9l-8.1,5.5c-1.7,1.1-3.8,1.3-5.6,0.4c-0.9-0.5-1.5-1.2-1.7-2v0l-3.1-8.7l0,0
					C281.2,414.4,281.6,414.6,282,414.8z"/>
				<path class="st9" d="M297.2,405.2c0.1,0.2,0.1,0.5,0.1,0.8c0,1.1-0.5,2.3-1.6,3l-8.1,5.5c-1.7,1.1-3.8,1.3-5.6,0.4
					c-0.4-0.2-0.8-0.5-1-0.8c-1.4-1.5-1.2-4,0.6-5.2l8.8-5.9c1.5-1,3.4-1.1,4.9-0.3c0.6,0.3,1.1,0.8,1.5,1.4L297.2,405.2z"/>
				<path class="st17" d="M297.2,405.2l-0.4-1.1C297,404.5,297.1,404.8,297.2,405.2z"/>
			</g>
			<g>
				<line class="st14" x1="281" y1="414.1" x2="284.1" y2="422.8"/>
				<line class="st14" x1="297.2" y1="405.2" x2="300.6" y2="414.1"/>
				<path class="st14" d="M300.5,414C300.6,414,300.6,414,300.5,414c1,1.6,0.7,3.8-1,5l-8.1,5.5c-1.7,1.1-3.8,1.3-5.6,0.4
					c-0.9-0.5-1.5-1.2-1.7-2"/>
				<path class="st14" d="M297.2,405.2c0.1,0.2,0.1,0.5,0.1,0.8c0,1.1-0.5,2.3-1.6,3l-8.1,5.5c-1.7,1.1-3.8,1.3-5.6,0.4
					c-0.4-0.2-0.8-0.5-1-0.8c-1.4-1.5-1.2-4,0.6-5.2l8.8-5.9c1.5-1,3.4-1.1,4.9-0.3c0.6,0.3,1.1,0.8,1.5,1.4
					C297,404.5,297.1,404.8,297.2,405.2z"/>
			</g>
		</g>
	</g>
	<g>
		<g id="XMLID_00000116218265080896617320000007422305621540690100_">
			<g>
				<path class="st15" d="M325.3,403l3.2,8.2c1,1.6,0.8,3.9-1,5.1l-43.4,30.8c-1.8,1.2-4.1,1.4-6,0.5c-1.1-0.5-1.8-1.4-2.1-2.5v0
					l-3.6-9.4c0.3,0.8,1,1.5,1.9,1.9c1.9,0.9,4.2,0.8,6-0.5l43.5-30.8c1.1-0.8,1.6-1.9,1.6-3C325.3,403.2,325.3,403.1,325.3,403z"/>
				<path class="st9" d="M325.3,403c0,0.1,0,0.2,0,0.3c0,1.1-0.5,2.3-1.6,3l-43.5,30.8c-1.8,1.2-4,1.4-6,0.5
					c-0.9-0.4-1.5-1.1-1.9-1.9l-0.1-0.2c-0.6-1.6-0.2-3.5,1.4-4.6l42.9-30.4c1.9-1.4,4.5-1.6,6.6-0.5
					C324.5,400.6,325.2,401.8,325.3,403L325.3,403z"/>
				<path class="st17" d="M272.4,435.5l0.1,0.2C272.4,435.6,272.4,435.6,272.4,435.5z"/>
			</g>
			<g>
				<polyline class="st14" points="272.3,435.3 272.4,435.5 272.5,435.7 276.1,445.1 				"/>
				<line class="st14" x1="325.3" y1="403" x2="328.5" y2="411.2"/>
				<path class="st14" d="M328.5,411.2c1,1.6,0.8,3.9-1,5.1l-43.4,30.8c-1.8,1.2-4.1,1.4-6,0.5c-1.1-0.5-1.8-1.4-2.1-2.5"/>
				<path class="st14" d="M325.3,403c0,0.1,0,0.2,0,0.3c0,1.1-0.5,2.3-1.6,3l-43.5,30.8c-1.8,1.2-4,1.4-6,0.5
					c-0.9-0.4-1.5-1.1-1.9-1.9c0-0.1-0.1-0.1-0.1-0.2c-0.6-1.6-0.2-3.5,1.4-4.6l42.9-30.4c1.9-1.4,4.5-1.6,6.6-0.5
					C324.5,400.6,325.2,401.8,325.3,403L325.3,403z"/>
			</g>
		</g>
	</g>
	<g>
		<g id="XMLID_00000108274096721893179750000006268661290773653673_">
			<g>
				<path class="st9" d="M328.6,417.5c0.1,0.3,0.1,0.6,0.1,0.9c0,1.3-0.7,2.7-2,3.7l-17.3,12.3c-2,1.4-4.4,1.8-6.4,0.9
					c-0.6-0.3-1.1-0.7-1.4-1.1l0,0c-1-1.5-0.5-3.8,1.5-5.2l18.1-12.8c1.7-1.2,3.9-1.5,5.6-0.8C327.7,415.8,328.3,416.5,328.6,417.5
					L328.6,417.5z"/>
				<path class="st15" d="M302.9,435.3c2,0.8,4.4,0.5,6.4-0.9l17.3-12.3c1.4-1,2-2.4,2-3.7c0-0.3,0-0.6-0.1-0.9l3.5,9.1l0,0
					c1,1.6,0.4,4-1.6,5.4l-17.3,12.3c-2,1.4-4.5,1.8-6.4,0.9c-1.1-0.4-1.7-1.3-1.9-2.3l-3.4-8.8C301.8,434.6,302.3,435,302.9,435.3z
					"/>
			</g>
			<g>
				<path class="st14" d="M332,426.6c1,1.6,0.4,4-1.6,5.4l-17.3,12.3c-2,1.4-4.5,1.8-6.4,0.9c-1.1-0.4-1.7-1.3-1.9-2.3"/>
				<path class="st14" d="M301.5,434.1c-1-1.5-0.5-3.8,1.5-5.2l18.1-12.8c1.7-1.2,3.9-1.5,5.6-0.8c1,0.4,1.6,1.2,1.9,2"/>
				<path class="st14" d="M328.6,417.5c0.1,0.3,0.1,0.6,0.1,0.9c0,1.3-0.7,2.7-2,3.7l-17.3,12.3c-2,1.4-4.4,1.8-6.4,0.9
					c-0.6-0.3-1.1-0.7-1.4-1.1"/>
				<polyline class="st14" points="301.5,434.1 301.5,434.1 304.9,442.9 				"/>
				<polyline class="st14" points="328.5,417.4 328.6,417.5 332,426.6 332,426.6 				"/>
			</g>
		</g>
	</g>
	<g>
		<g id="XMLID_00000132054222044084514960000010393049962102028198_">
			<g>
				<path class="st15" d="M333.3,431.3l3.7,9.5c0.7,1.5,0.2,3.4-1.3,4.5l-8.1,5.5c-1.7,1.1-3.8,1.3-5.6,0.4
					c-0.8-0.4-1.4-1.1-1.7-1.9l0,0l-3.7-9.6c0.3,0.6,0.8,1.2,1.5,1.5c1.8,0.9,4,0.8,5.6-0.4l8.1-5.5c1.1-0.7,1.6-1.9,1.6-3
					C333.5,432,333.4,431.6,333.3,431.3z"/>
				<path class="st9" d="M333.3,431.3c0.1,0.3,0.2,0.7,0.2,1c0,1.1-0.5,2.3-1.6,3l-8.1,5.5c-1.7,1.1-3.8,1.3-5.6,0.4
					c-0.7-0.4-1.2-0.9-1.5-1.5c-0.8-1.5-0.4-3.4,1.2-4.4l8.8-5.9c1.5-1,3.3-1.1,4.9-0.3C331.8,429.2,332,429.4,333.3,431.3z"/>
			</g>
			<g>
				<path class="st14" d="M337,440.8c0.7,1.5,0.2,3.4-1.3,4.5l-8.1,5.5c-1.7,1.1-3.8,1.3-5.6,0.4c-0.8-0.4-1.4-1.1-1.7-1.9"/>
				<path class="st14" d="M333.3,431.3c0.1,0.3,0.2,0.7,0.2,1c0,1.1-0.5,2.3-1.6,3l-8.1,5.5c-1.7,1.1-3.8,1.3-5.6,0.4
					c-0.7-0.4-1.2-0.9-1.5-1.5c-0.8-1.5-0.4-3.4,1.2-4.4l8.8-5.9c1.5-1,3.3-1.1,4.9-0.3C331.8,429.2,332,429.4,333.3,431.3z"/>
				<line class="st14" x1="316.6" y1="439.6" x2="320.3" y2="449.2"/>
				<line class="st14" x1="333.3" y1="431.3" x2="337" y2="440.8"/>
			</g>
		</g>
	</g>
	<g>
		<g id="XMLID_00000044175169702498355180000003366070889492499850_">
			<g>
				<polygon class="st15" points="421.1,306.8 425,319.6 327.1,390.4 315.4,384.5 311.6,371.6 323.3,377.6 				"/>
				<polygon class="st9" points="421.1,306.8 323.3,377.6 311.6,371.6 409.4,300.8 				"/>
			</g>
			<g>
				<polyline class="st14" points="425,319.6 327.1,390.4 315.4,384.5 				"/>
				<line class="st14" x1="311.6" y1="371.6" x2="315.4" y2="384.5"/>
				<line class="st14" x1="421.1" y1="306.8" x2="425" y2="319.6"/>
				<polygon class="st14" points="421.1,306.8 323.3,377.6 311.6,371.6 409.4,300.8 				"/>
			</g>
		</g>
	</g>
	<g>
		<g id="XMLID_00000103985430115522833020000006575634690795479216_">
			<g>
				<polygon class="st15" points="438,316.7 443.4,330.9 433,393.8 345,401.8 339.6,387.6 427.6,379.6 				"/>
				<polygon class="st9" points="438,316.7 427.6,379.6 339.6,387.6 				"/>
			</g>
			<g>
				<polyline class="st14" points="345,401.8 433,393.8 443.4,330.9 				"/>
				<line class="st14" x1="438" y1="316.7" x2="443.4" y2="330.9"/>
				<line class="st14" x1="339.6" y1="387.6" x2="345" y2="401.8"/>
				<polygon class="st14" points="339.6,387.6 427.6,379.6 438,316.7 				"/>
			</g>
		</g>
	</g>
	<line class="st18" x1="394.2" y1="358.2" x2="417.4" y2="340.9"/>
	<line class="st18" x1="423.9" y1="335.8" x2="424.8" y2="335.1"/>
</g>
</svg>
