<?xml version="1.0" encoding="utf-8"?>
<!-- Generator: Adobe Illustrator 27.6.1, SVG Export Plug-In . SVG Version: 6.00 Build 0)  -->
<svg version="1.1" id="Layer_1" xmlns="http://www.w3.org/2000/svg" xmlns:xlink="http://www.w3.org/1999/xlink" x="0px" y="0px"
	 viewBox="0 0 1125 2436" style="enable-background:new 0 0 1125 2436;" xml:space="preserve">
<style type="text/css">
	.st0{fill:#565554;}
	.st1{fill:#929191;}
	.st2{fill:#F5893F;}
	.st3{fill:#EC7626;}
	.st4{fill:#FFFFFF;}
	.st5{fill:none;stroke:#6D6E6E;stroke-width:6.1961;stroke-linecap:round;stroke-linejoin:round;stroke-miterlimit:10;}
	.st6{fill:none;stroke:#D36828;stroke-width:6.1961;stroke-linecap:round;stroke-linejoin:round;stroke-miterlimit:10;}
	.st7{opacity:0.5;clip-path:url(#XMLID_00000176728679597500702410000014332337731690965920_);fill:#D36828;}
</style>
<rect x="-117" y="-115" class="st0" width="1359" height="2666"/>
<g>
	<g>
		<g id="XMLID_00000096021847684084842820000015744814835207500201_">
			<g>
				<path class="st1" d="M760.3,1210.8c17.3,22.7,25.5,47.5,21.9,72.3c-10.5,72.2-117.3,116.5-238.6,98.9
					c-121.3-17.6-211.2-90.4-200.7-162.6c3.8-26,20-48.3,44.8-65.5l-3.2,51.9c-8.9,61.3,67.3,123.1,170.3,138
					c102.9,15,193.6-22.6,202.5-83.9L760.3,1210.8z"/>
				<path class="st2" d="M591.2,1053.4c102.9,15,179.2,76.7,170.3,138c-8.9,61.3-99.5,98.8-202.5,83.9
					c-96.8-14-169.9-69.5-170.9-127l0.7-11C397.6,1076.1,488.3,1038.5,591.2,1053.4z M663.5,1137.4l18.3-9.2l-72.2-38l-18.3,9.2
					L663.5,1137.4z M628.1,1149.7l16.9-10.2l-55.6-29.3l-16.9,10.2L628.1,1149.7z M591.4,1159.7l15.7-9.7l-33.9-17.9l-15.7,9.7
					L591.4,1159.7z M548.8,1219.2l13.6-61.7l-95.2,21.1L548.8,1219.2z"/>
				<path class="st3" d="M760.3,1210.8l-3.1,49.1c-8.9,61.3-99.5,98.8-202.5,83.9c-102.9-14.9-179.2-76.7-170.3-138l3.2-51.9
					l0.3-5.5c1,57.5,74.1,113,170.9,127c102.9,14.9,193.6-22.6,202.5-83.9L760.3,1210.8z"/>
				<polygon class="st4" points="681.8,1128.3 663.5,1137.4 591.3,1099.5 609.6,1090.3 				"/>
				<polygon class="st4" points="645,1139.6 628.1,1149.7 572.5,1120.4 589.4,1110.3 				"/>
				<polygon class="st4" points="607.1,1150 591.4,1159.7 557.5,1141.8 573.2,1132.1 				"/>
				<polygon class="st4" points="562.3,1157.5 548.8,1219.2 467.1,1178.6 				"/>
			</g>
			<g>
				<path class="st5" d="M760.2,1210.7c0,0,0.1,0.1,0.1,0.1c17.3,22.7,25.5,47.5,21.9,72.3c-10.5,72.2-117.3,116.5-238.6,98.9
					c-121.3-17.6-211.2-90.4-200.7-162.6c3.8-26,20-48.3,44.8-65.5c0.2-0.2,0.4-0.3,0.6-0.4"/>
				<path class="st6" d="M761.5,1191.5c-8.9,61.3-99.5,98.8-202.5,83.9c-96.8-14-169.9-69.5-170.9-127c-0.1-3.6,0.1-7.3,0.7-11
					c8.9-61.3,99.5-98.8,202.5-83.9C694.1,1068.4,770.4,1130.2,761.5,1191.5z"/>
				<path class="st6" d="M757.2,1259.9c-8.9,61.3-99.5,98.8-202.5,83.9c-102.9-14.9-179.2-76.7-170.3-138"/>
				<polyline class="st6" points="388.7,1137.4 388.1,1148.3 387.7,1153.9 384.5,1205.8 				"/>
				<polyline class="st6" points="757.2,1259.9 760.3,1210.8 761.5,1191.5 				"/>
				<polygon class="st6" points="467.1,1178.6 548.8,1219.2 562.3,1157.5 				"/>
				<polygon class="st6" points="607.1,1150 591.4,1159.7 557.5,1141.8 573.2,1132.1 				"/>
				<polygon class="st6" points="645,1139.6 628.1,1149.7 572.5,1120.4 589.4,1110.3 				"/>
				<polygon class="st6" points="681.8,1128.3 663.5,1137.4 591.3,1099.5 609.6,1090.3 				"/>
			</g>
		</g>
	</g>
	<g>
		<path id="XMLID_00000163042398139256797890000017325878959195594156_" class="st5" d="M760.2,1210.7c17.3,22.7,25.6,47.6,22,72.4
			c-10.5,72.2-117.3,116.5-238.6,98.9s-211.1-90.4-200.7-162.6c3.8-26.2,20.2-48.7,45.4-65.9"/>
		<path class="st6" d="M388.7,1137.4c8.9-61.3,99.5-98.8,202.5-83.9c102.9,14.9,179.2,76.7,170.3,138"/>
		<g>
			<defs>
				<path id="XMLID_00000013871766665459460470000012989426008238676628_" d="M384.5,1205.8c-8.9,61.3,67.3,123.1,170.3,138
					c102.9,14.9,193.6-22.6,202.5-83.9l4.3-68.4c-8.9,61.3-99.5,98.8-202.5,83.9c-102.9-14.9-179.2-76.7-170.3-138L384.5,1205.8z"/>
			</defs>
			<clipPath id="XMLID_00000033326674130079053420000014145423970097314968_">
				<use xlink:href="#XMLID_00000013871766665459460470000012989426008238676628_"  style="overflow:visible;"/>
			</clipPath>
			<path style="opacity:0.5;clip-path:url(#XMLID_00000033326674130079053420000014145423970097314968_);fill:#D36828;" d="
				M364.1,1081c4.9,31,20.6,102.4,79.4,166c92.7,100.4,219,101.8,241,101.7c-111.9,6.8-223.8,13.7-335.6,20.5
				C353.9,1273.2,359,1177.1,364.1,1081z"/>
			
				<use xlink:href="#XMLID_00000013871766665459460470000012989426008238676628_"  style="overflow:visible;fill:none;stroke:#D36828;stroke-width:6.1961;stroke-linecap:round;stroke-linejoin:round;stroke-miterlimit:10;"/>
		</g>
		<polygon class="st6" points="467.1,1178.6 548.7,1219.2 562.3,1157.4 		"/>
		<polygon class="st6" points="607.1,1150 591.4,1159.7 557.5,1141.8 573.2,1132.1 		"/>
		<polygon class="st6" points="645,1139.6 628.1,1149.7 572.5,1120.5 589.4,1110.3 		"/>
		<polygon class="st6" points="681.8,1128.3 663.5,1137.4 591.3,1099.5 609.6,1090.3 		"/>
	</g>
</g>
</svg>
