<?xml version="1.0" encoding="utf-8"?>
<!-- Generator: Adobe Illustrator 27.6.1, SVG Export Plug-In . SVG Version: 6.00 Build 0)  -->
<svg version="1.1" id="Layer_1" xmlns="http://www.w3.org/2000/svg" xmlns:xlink="http://www.w3.org/1999/xlink" x="0px" y="0px"
	 viewBox="0 0 1125 2436" style="enable-background:new 0 0 1125 2436;" xml:space="preserve">
<style type="text/css">
	.st0{fill:#025866;}
	.st1{fill:#FFC4C9;}
	.st2{fill:#54BDC7;}
	.st3{fill:#2791A1;}
	.st4{fill:#097384;}
	.st5{fill:none;stroke:#025866;stroke-width:4;stroke-linecap:round;stroke-linejoin:round;stroke-miterlimit:10;}
	.st6{fill:none;stroke:#FFD8D4;stroke-width:10;stroke-linecap:round;stroke-linejoin:round;stroke-miterlimit:10;}
	.st7{fill:none;stroke:#025866;stroke-width:20;stroke-linecap:round;stroke-linejoin:round;stroke-miterlimit:10;}
	.st8{fill:#DB0636;}
	.st9{fill:none;stroke:#DB0636;stroke-width:3;stroke-linecap:round;stroke-linejoin:round;}
	.st10{fill:#AB052A;}
	.st11{fill:none;stroke:#AB052A;stroke-width:3;stroke-linecap:round;stroke-linejoin:round;}
	.st12{fill:#7D041F;}
	.st13{fill:none;stroke:#7D041F;stroke-width:3;stroke-linecap:round;stroke-linejoin:round;}
	.st14{fill:#940525;}
	.st15{fill:none;stroke:#7D041F;stroke-width:3;stroke-linecap:round;stroke-linejoin:round;stroke-miterlimit:10;}
	.st16{fill:#FFFFFF;}
	.st17{fill:none;stroke:#FFC4C9;stroke-width:4;stroke-linecap:round;stroke-linejoin:round;stroke-miterlimit:10;}
</style>
<rect x="-53" y="-51.5" class="st0" width="1231" height="2539"/>
<g>
	<g>
		<g id="XMLID_00000142894123752593884980000017348487981908455862_">
			<g>
				<path class="st1" d="M844.9,1218c0,1.3,0,2.7,0,4l-35.4-28.8v0c-23.3-20.6-124.4-6.8-229.9,52
					c-105.1,58.6-174,134.7-165.7,167.4l0.3,45.6c-80.4-49.8-133.9-138.8-133.9-240.3c0-155.9,126.4-282.4,282.4-282.4
					S844.9,1062.1,844.9,1218z"/>
				<path class="st2" d="M811.9,1196c18.4,25.7-27.7,93.1-107.5,150.3c-15.7,11.2-32.6,22.1-50.7,32.1
					c-109.8,61.3-223.5,66.5-238.4,38.4c-0.7-1.3-1.2-2.7-1.6-4.1c-8.2-32.7,60.6-108.8,165.7-167.4c105.5-58.8,206.7-72.6,229.9-52
					C810.4,1194.1,811.2,1195,811.9,1196z"/>
				<path class="st3" d="M811.9,1196c-0.7-1-1.5-1.9-2.5-2.7v0l35.4,28.8c-0.5,32.8-6.5,64.3-17.3,93.5c0,0,0,0,0,0
					c-28.3,42.9-78.1,90.3-141.7,125.8c-32.2,18-65.3,30.7-96.7,38.9c80.3-24.6,115.2-133.9,115.2-133.9
					C784.2,1289.1,830.3,1221.6,811.9,1196z"/>
				<path class="st0" d="M685.9,1441.3c63.6-35.5,113.4-82.9,141.7-125.8C788,1423,685,1499.7,564,1500.4
					c11-1.5,21.7-18.8,22.1-19.3l0,0c1-0.3,2.1-0.5,3.1-0.8C620.6,1472,653.7,1459.3,685.9,1441.3z"/>
				<path class="st2" d="M704.4,1346.3c0,0-34.9,109.3-115.2,133.9c-1,0.3-2.1,0.5-3.1,0.8l0,0c-33.6,8.5-65.3,11.8-92.1,11
					c0,0,0,0,0,0c-28.6-7.1-55.5-18.6-79.9-33.7l-0.3-45.6c0.4,1.5,0.9,2.8,1.6,4.1c14.9,28.1,128.6,22.8,238.4-38.4
					C671.8,1368.3,688.8,1357.5,704.4,1346.3z"/>
				<path class="st4" d="M586.1,1481c-0.3,0.5-11,17.8-22.1,19.3c-0.5,0-1,0-1.5,0c-23.6,0-46.6-2.9-68.5-8.4
					C520.8,1492.8,552.5,1489.5,586.1,1481z"/>
			</g>
			<g>
				<path class="st5" d="M809.5,1193.2c1,0.8,1.8,1.8,2.5,2.7c18.4,25.7-27.7,93.1-107.5,150.3c-15.7,11.2-32.6,22.1-50.7,32.1
					c-109.8,61.3-223.5,66.5-238.4,38.4c-0.7-1.3-1.2-2.7-1.6-4.1c-8.2-32.7,60.6-108.8,165.7-167.4
					C685,1186.4,786.2,1172.6,809.5,1193.2z"/>
				<line class="st5" x1="844.8" y1="1222.1" x2="809.5" y2="1193.2"/>
				<path class="st5" d="M586.1,1481c1-0.3,2.1-0.5,3.1-0.8c31.4-8.2,64.4-20.9,96.7-38.9c63.6-35.5,113.4-82.9,141.7-125.8"/>
				<path class="st5" d="M494,1492c26.8,0.8,58.5-2.5,92.1-11"/>
				<line class="st5" x1="413.8" y1="1412.7" x2="414.1" y2="1458.3"/>
				<path class="st6" d="M493.9,1492c-28.6-7.1-55.5-18.6-79.9-33.7c-80.4-49.8-133.9-138.8-133.9-240.3
					c0-155.9,126.4-282.4,282.4-282.4s282.4,126.4,282.4,282.4c0,1.3,0,2.7,0,4c-0.5,32.8-6.5,64.3-17.3,93.5"/>
				<path class="st5" d="M494,1492C494,1492,494,1492,494,1492"/>
				<path class="st6" d="M827.6,1315.5C788,1423,685,1499.7,564,1500.4c-0.5,0-1,0-1.5,0c-23.6,0-46.6-2.9-68.5-8.4"/>
				<path class="st5" d="M827.6,1315.5C827.6,1315.5,827.6,1315.5,827.6,1315.5"/>
			</g>
		</g>
		<circle class="st7" cx="562.5" cy="1218" r="282.4"/>
	</g>
	<g id="XMLID_00000176755065786218781350000017389223380625742510_">
		<g>
			<path class="st8" d="M576.2,1215c-1.1-0.3-13.6-3.8-24.1,4.6c-9,7.3-9.6,17.9-9.7,19.5c-7.3-9.4-5.8-22.7,2.5-29.5
				C553.9,1202,569,1204,576.2,1215z"/>
		</g>
		<g>
			<path class="st9" d="M542.4,1239.1c0.1-1.6,0.6-12.2,9.7-19.5c10.5-8.4,23-4.9,24.1-4.6c-7.3-11-22.3-13-31.3-5.4
				C536.7,1216.4,535.1,1229.7,542.4,1239.1z"/>
		</g>
	</g>
	<g id="XMLID_00000088133618433617241640000013136824745102220953_">
		<g>
			<path class="st10" d="M566.9,1182.1c-11.5-13.6-28.2-17.7-40.5-9.7c-14.7,9.6-21,23.2-10.6,42.4c-18.7-26.7-17.8-51.6,0.4-62
				C536.7,1141.2,556.6,1161,566.9,1182.1z"/>
		</g>
		<g>
			<path class="st11" d="M515.7,1214.8c-10.4-19.2-4.1-32.8,10.6-42.4c12.3-8,29-3.9,40.5,9.7c-10.3-21.2-30.2-40.9-50.7-29.3
				C497.9,1163.2,497.1,1188.1,515.7,1214.8z"/>
		</g>
	</g>
	<g id="XMLID_00000013159345934851875560000008259831173361744556_">
		<g>
			<path class="st12" d="M442.6,1026.5c53.2-30.1,106.2,48.3,123.2,103.3c-28.2-46-59.6-49-84.4-36.7
				c-22.3,11.1-39.6,49.9-5.3,100.5C434.1,1155.9,395.2,1053.3,442.6,1026.5z"/>
		</g>
		<g>
			<path class="st13" d="M476.1,1193.7c-34.3-50.7-17-89.4,5.3-100.5c24.8-12.3,56.2-9.3,84.4,36.7c-17-55-70-133.5-123.2-103.3
				C395.2,1053.3,434.1,1155.9,476.1,1193.7z"/>
		</g>
	</g>
	<g>
		<g id="XMLID_00000127026338713583893390000011415083023234259868_">
			<g>
				<path class="st14" d="M539.2,1309.5l2.9,8.5c0.9,1.3,0.8,4-0.6,5.1l-15.5,10.4c-1.8,1.2-4,1.3-5.9,0.4c-0.8-0.4-1.3-1-1.6-1.8h0
					l-3.6-9.5c0.3,0.5,0.8,1,1.4,1.3c1.9,1,4.1,0.8,5.9-0.4l15.7-10.6c0.9-0.6,1.4-1.6,1.4-2.6
					C539.3,1310,539.2,1309.8,539.2,1309.5z"/>
				<path class="st8" d="M539.2,1309.5c0.1,0.3,0.1,0.6,0.1,0.8c0,1-0.5,2-1.4,2.6l-15.7,10.6c-1.8,1.2-4,1.3-5.9,0.4
					c-0.6-0.3-1.1-0.8-1.4-1.3c-0.9-1.5-0.5-3.5,1-4.5l15.3-10.2c1.9-1.3,4.3-1.4,6.4-0.4c0.7,0.4,1.2,1,1.5,1.7L539.2,1309.5z"/>
			</g>
			<g>
				<line class="st15" x1="514.9" y1="1322.6" x2="518.5" y2="1332.1"/>
				<line class="st13" x1="539.2" y1="1309.5" x2="542.1" y2="1318"/>
				<path class="st13" d="M542.1,1318c0.9,1.3,0.8,4-0.6,5.1l-15.5,10.4c-1.8,1.2-4,1.3-5.9,0.4c-0.8-0.4-1.3-1-1.6-1.8"/>
				<path class="st13" d="M539.2,1309.5c0.1,0.3,0.1,0.6,0.1,0.8c0,1-0.5,2-1.4,2.6l-15.7,10.6c-1.8,1.2-4,1.3-5.9,0.4
					c-0.6-0.3-1.1-0.8-1.4-1.3c-0.9-1.5-0.5-3.5,1-4.5l15.3-10.2c1.9-1.3,4.3-1.4,6.4-0.4c0.7,0.4,1.2,1,1.5,1.7L539.2,1309.5z"/>
			</g>
		</g>
	</g>
	<g>
		<g id="XMLID_00000138533823582710631480000014361292209339995071_">
			<g>
				<path class="st14" d="M563.1,1309.2l3.9,10.5c0.1,1.2-0.3,2.4-1.4,3.2l-43.5,30.9c-1.9,1.4-4.5,1.6-6.6,0.5
					c-1.2-0.6-1.7-1.6-2-2.8l-3.4-8.7c0.3,0.6,0.9,1.2,1.6,1.6c2.1,1,4.7,0.8,6.6-0.5l43.5-30.9c1-0.7,1.5-1.8,1.5-2.8
					C563.3,1309.8,563.2,1309.5,563.1,1309.2z"/>
				<path class="st8" d="M510,1342.7c-0.9-1.6-0.5-3.7,1.1-4.8l42.8-30.3c2.2-1.5,5-1.8,7.4-0.6c0.8,0.4,1.3,1,1.6,1.7l0.2,0.5
					c0.1,0.3,0.1,0.6,0.1,0.9c0,1.1-0.5,2.1-1.5,2.8l-43.5,30.9c-1.9,1.4-4.5,1.6-6.6,0.5C510.9,1343.9,510.4,1343.4,510,1342.7z"/>
			</g>
			<g>
				<line class="st15" x1="563.1" y1="1309.2" x2="567.1" y2="1319.7"/>
				<polyline class="st15" points="513.5,1351.4 510,1342.7 509.7,1341.9 				"/>
				<path class="st13" d="M567.1,1319.7c0.1,1.2-0.3,2.4-1.4,3.2l-43.5,30.9c-1.9,1.4-4.5,1.6-6.6,0.5c-1.2-0.6-1.7-1.6-2-2.8"/>
				<line class="st15" x1="563" y1="1308.7" x2="563.1" y2="1309.2"/>
				<path class="st13" d="M563.1,1309.2c0.1,0.3,0.1,0.6,0.1,0.9c0,1.1-0.5,2.1-1.5,2.8l-43.5,30.9c-1.9,1.4-4.5,1.6-6.6,0.5
					c-0.7-0.4-1.3-0.9-1.6-1.6c-0.9-1.6-0.5-3.7,1.1-4.8l42.8-30.3c2.2-1.5,5-1.8,7.4-0.6c0.8,0.4,1.3,1,1.6,1.7"/>
			</g>
		</g>
	</g>
	<g>
		<g id="XMLID_00000088846104167079580550000005368586420030919348_">
			<g>
				<path class="st14" d="M565.5,1334.4c1,1.6,0.6,3.8-1.1,4.9l-8.1,5.5c-1.7,1.1-3.8,1.3-5.6,0.4c-0.9-0.4-1.5-1.2-1.7-2v0
					l-3.1-8.7c0.3,0.3,0.6,0.6,1,0.8c1.8,0.9,4,0.8,5.6-0.4l8.1-5.5c1.1-0.7,1.6-1.9,1.6-3c0-0.3,0-0.5-0.1-0.8L565.5,1334.4
					L565.5,1334.4z"/>
				<path class="st8" d="M562.1,1325.6c0.1,0.2,0.1,0.5,0.1,0.8c0,1.2-0.5,2.3-1.6,3l-8.1,5.5c-1.7,1.1-3.8,1.3-5.6,0.4
					c-0.4-0.2-0.7-0.5-1-0.8c-1.3-1.5-1.2-4,0.7-5.2l8.8-5.8c1.5-1,3.4-1.1,4.9-0.3c0.6,0.3,1.1,0.8,1.5,1.4L562.1,1325.6z"/>
				<path class="st16" d="M562.1,1325.6l-0.4-1.1C561.8,1324.8,562,1325.2,562.1,1325.6z"/>
			</g>
			<g>
				<line class="st13" x1="545.8" y1="1334.4" x2="548.9" y2="1343.1"/>
				<line class="st13" x1="562.1" y1="1325.6" x2="565.5" y2="1334.4"/>
				<path class="st13" d="M565.4,1334.3C565.4,1334.4,565.4,1334.4,565.4,1334.3c1,1.6,0.7,3.8-1,5l-8.1,5.5
					c-1.7,1.1-3.8,1.3-5.6,0.4c-0.9-0.4-1.5-1.2-1.7-2"/>
				<path class="st13" d="M562.1,1325.6c0.1,0.2,0.1,0.5,0.1,0.8c0,1.2-0.5,2.3-1.6,3l-8.1,5.5c-1.7,1.1-3.8,1.3-5.6,0.4
					c-0.4-0.2-0.7-0.5-1-0.8c-1.3-1.5-1.2-4,0.7-5.2l8.8-5.8c1.5-1,3.4-1.1,4.9-0.3c0.6,0.3,1.1,0.8,1.5,1.4
					C561.8,1324.8,562,1325.2,562.1,1325.6z"/>
			</g>
		</g>
	</g>
	<g>
		<g id="XMLID_00000116218265080896617320000007422305621540690100_">
			<g>
				<path class="st14" d="M590.2,1323.4l3.2,8.2c1,1.6,0.8,3.9-1,5.1l-43.5,30.8c-1.8,1.2-4.1,1.4-6,0.5c-1.1-0.5-1.8-1.5-2.1-2.5
					l-3.6-9.4c0.3,0.8,1,1.5,1.9,1.9c1.9,0.9,4.2,0.8,6-0.5l43.5-30.8c1.1-0.8,1.6-1.9,1.6-3
					C590.2,1323.6,590.2,1323.5,590.2,1323.4z"/>
				<path class="st8" d="M590.2,1323.4c0,0.1,0,0.2,0,0.3c0,1.1-0.5,2.3-1.6,3l-43.5,30.8c-1.8,1.2-4,1.4-6,0.5
					c-0.9-0.4-1.5-1.1-1.9-1.9l-0.1-0.2c-0.6-1.6-0.2-3.5,1.4-4.6l42.8-30.4c2-1.4,4.5-1.6,6.6-0.5
					C589.4,1320.9,590.1,1322.1,590.2,1323.4L590.2,1323.4z"/>
				<path class="st16" d="M537.2,1355.8l0.1,0.2C537.3,1356,537.3,1355.9,537.2,1355.8z"/>
			</g>
			<g>
				<polyline class="st13" points="537.2,1355.7 537.2,1355.8 537.3,1356 541,1365.4 				"/>
				<line class="st13" x1="590.2" y1="1323.4" x2="593.4" y2="1331.5"/>
				<path class="st13" d="M593.4,1331.5c1,1.6,0.8,3.9-1,5.1l-43.5,30.8c-1.8,1.2-4.1,1.4-6,0.5c-1.1-0.5-1.8-1.5-2.1-2.5"/>
				<path class="st13" d="M590.2,1323.4c0,0.1,0,0.2,0,0.3c0,1.1-0.5,2.3-1.6,3l-43.5,30.8c-1.8,1.2-4,1.4-6,0.5
					c-0.9-0.4-1.5-1.1-1.9-1.9c0-0.1-0.1-0.1-0.1-0.2c-0.6-1.6-0.2-3.5,1.4-4.6l42.8-30.4c2-1.4,4.5-1.6,6.6-0.5
					C589.4,1320.9,590.1,1322.1,590.2,1323.4L590.2,1323.4z"/>
			</g>
		</g>
	</g>
	<g>
		<g id="XMLID_00000108274096721893179750000006268661290773653673_">
			<g>
				<path class="st8" d="M593.4,1337.8c0.1,0.3,0.1,0.6,0.1,0.9c0,1.3-0.7,2.7-2,3.7l-17.3,12.3c-2,1.4-4.4,1.8-6.4,0.9
					c-0.6-0.3-1.1-0.7-1.4-1.2c-1-1.5-0.5-3.8,1.5-5.2l18.1-12.7c1.7-1.2,3.9-1.5,5.6-0.8C592.5,1336.1,593.1,1336.9,593.4,1337.8
					L593.4,1337.8z"/>
				<path class="st14" d="M596.9,1347c1,1.6,0.4,4-1.6,5.4l-17.3,12.3c-2,1.4-4.5,1.8-6.4,1c-1.1-0.5-1.7-1.3-1.8-2.3l-3.4-8.8
					c0.3,0.5,0.8,0.9,1.4,1.2c2,0.8,4.4,0.5,6.4-0.9l17.3-12.3c1.4-1,2-2.4,2-3.7c0-0.3,0-0.6-0.1-0.9L596.9,1347z"/>
			</g>
			<g>
				<path class="st13" d="M596.9,1346.9C596.9,1346.9,596.9,1347,596.9,1346.9c1,1.6,0.5,4-1.5,5.4l-17.3,12.3c-2,1.4-4.5,1.8-6.4,1
					c-1.1-0.5-1.7-1.3-1.8-2.3"/>
				<path class="st13" d="M593.4,1337.8c0.1,0.3,0.1,0.6,0.1,0.9c0,1.3-0.7,2.7-2,3.7l-17.3,12.3c-2,1.4-4.4,1.8-6.4,0.9
					c-0.6-0.3-1.1-0.7-1.4-1.2c-1-1.5-0.5-3.8,1.5-5.2l18.1-12.7c1.7-1.2,3.9-1.5,5.6-0.8C592.5,1336.1,593.1,1336.9,593.4,1337.8"
					/>
				<line class="st13" x1="566.4" y1="1354.5" x2="569.8" y2="1363.3"/>
				<polyline class="st13" points="593.4,1337.8 593.4,1337.8 596.9,1347 				"/>
			</g>
		</g>
	</g>
	<g>
		<g id="XMLID_00000132054222044084514960000010393049962102028198_">
			<g>
				<path class="st14" d="M596.7,1355.7c1.1-0.7,1.6-1.9,1.6-3c0-0.3,0-0.7-0.2-1l3.7,9.5c0.7,1.5,0.2,3.4-1.3,4.5l-8.1,5.5
					c-1.7,1.1-3.8,1.3-5.6,0.4c-0.8-0.4-1.4-1.1-1.7-1.9h0l-3.7-9.6c0.3,0.6,0.8,1.2,1.5,1.5c1.8,0.9,4,0.8,5.6-0.4L596.7,1355.7z"
					/>
				<path class="st8" d="M598.2,1351.6c0.1,0.3,0.2,0.7,0.2,1c0,1.1-0.5,2.3-1.6,3l-8.1,5.5c-1.7,1.1-3.8,1.3-5.6,0.4
					c-0.7-0.3-1.2-0.9-1.5-1.5c-0.8-1.5-0.4-3.4,1.2-4.4l8.8-5.9c1.5-1,3.3-1.1,4.9-0.3C596.6,1349.6,596.9,1349.7,598.2,1351.6z"/>
			</g>
			<g>
				<path class="st13" d="M601.9,1361.2c0.7,1.5,0.2,3.4-1.3,4.5l-8.1,5.5c-1.7,1.1-3.8,1.3-5.6,0.4c-0.8-0.4-1.4-1.1-1.7-1.9"/>
				<path class="st13" d="M598.2,1351.6c0.1,0.3,0.2,0.7,0.2,1c0,1.1-0.5,2.3-1.6,3l-8.1,5.5c-1.7,1.1-3.8,1.3-5.6,0.4
					c-0.7-0.3-1.2-0.9-1.5-1.5c-0.8-1.5-0.4-3.4,1.2-4.4l8.8-5.9c1.5-1,3.3-1.1,4.9-0.3C596.6,1349.6,596.9,1349.7,598.2,1351.6z"/>
				<line class="st13" x1="581.5" y1="1360" x2="585.2" y2="1369.6"/>
				<line class="st13" x1="598.2" y1="1351.6" x2="601.9" y2="1361.2"/>
			</g>
		</g>
	</g>
	<g>
		<g id="XMLID_00000044175169702498355180000003366070889492499850_">
			<g>
				<polygon class="st14" points="686,1227.1 689.8,1240 592,1310.8 580.3,1304.8 576.4,1292 588.2,1297.9 				"/>
				<polygon class="st8" points="686,1227.1 588.2,1297.9 576.4,1292 674.3,1221.2 				"/>
			</g>
			<g>
				<polyline class="st13" points="689.8,1240 592,1310.8 580.3,1304.8 				"/>
				<line class="st13" x1="576.4" y1="1292" x2="580.3" y2="1304.8"/>
				<line class="st13" x1="686" y1="1227.1" x2="689.8" y2="1240"/>
				<polygon class="st13" points="686,1227.1 588.2,1297.9 576.4,1292 674.3,1221.2 				"/>
			</g>
		</g>
	</g>
	<g>
		<g id="XMLID_00000103985430115522833020000006575634690795479216_">
			<g>
				<polygon class="st14" points="702.9,1237.1 708.2,1251.2 697.8,1314.1 609.8,1322.1 604.5,1308 692.5,1300 				"/>
				<polygon class="st8" points="702.9,1237.1 692.5,1300 604.5,1308 				"/>
			</g>
			<g>
				<polyline class="st13" points="609.8,1322.1 697.8,1314.1 708.2,1251.2 				"/>
				<line class="st13" x1="702.9" y1="1237.1" x2="708.2" y2="1251.2"/>
				<line class="st13" x1="604.5" y1="1308" x2="609.8" y2="1322.1"/>
				<polygon class="st13" points="604.5,1308 692.5,1300 702.9,1237.1 				"/>
			</g>
		</g>
	</g>
	<line class="st17" x1="659" y1="1278.6" x2="682.3" y2="1261.2"/>
	<line class="st17" x1="688.8" y1="1256.2" x2="689.7" y2="1255.5"/>
</g>
</svg>
